{
    "asset" : {
        "generator" : "Khronos Blender glTF 2.0 I/O",
        "version" : "2.0"
    },
    "scene" : 0,
    "scenes" : [
        {
            "name" : "Scene",
            "nodes" : [
                0,
                1,
                2,
                3
            ]
        }
    ],
    "nodes" : [
        {
            "mesh" : 0,
            "name" : "Plane",
            "rotation" : [
                0.7071068286895752,
                0,
                0,
                0.7071067094802856
            ]
        },
        {
            "mesh" : 1,
            "name" : "GH_inner_dot",
            "rotation" : [
                0.7071068286895752,
                0,
                0,
                0.7071067094802856
            ],
            "translation" : [
                52.77421951293945,
                168.34756469726562,
                -0.0021226885728538036
            ]
        },
        {
            "mesh" : 2,
            "name" : "GH_inner_ring",
            "rotation" : [
                0.7071068286895752,
                0,
                0,
                0.7071067094802856
            ],
            "translation" : [
                0.0021175527945160866,
                26.379636764526367,
                -0.03794292360544205
            ]
        },
        {
            "mesh" : 3,
            "name" : "GH_outer_ring",
            "rotation" : [
                0.7071068286895752,
                0,
                0,
                0.7071067094802856
            ],
            "translation" : [
                -0.444534569978714,
                114.88884735107422,
                -0.30620089173316956
            ]
        }
    ],
    "materials" : [
        {
            "alphaMode" : "BLEND",
            "name" : "shadow",
            "pbrMetallicRoughness" : {
                "baseColorFactor" : [
                    0,
                    0,
                    0,
                    1
                ],
                "metallicFactor" : 1,
                "roughnessFactor" : 0.7642977237701416
            }
        },
        {
            "name" : "GH",
            "pbrMetallicRoughness" : {
                "baseColorTexture" : {
                    "index" : 0,
                    "texCoord" : 0
                },
                "metallicFactor" : 1,
                "roughnessFactor" : 0.7642977237701416
            }
        }
    ],
    "meshes" : [
        {
            "name" : "Plane",
            "primitives" : [
                {
                    "attributes" : {
                        "POSITION" : 0,
                        "NORMAL" : 1,
                        "TEXCOORD_0" : 2
                    },
                    "indices" : 3,
                    "material" : 0
                }
            ]
        },
        {
            "name" : "GH_solid",
            "primitives" : [
                {
                    "attributes" : {
                        "POSITION" : 4,
                        "NORMAL" : 5,
                        "TEXCOORD_0" : 6
                    },
                    "indices" : 7,
                    "material" : 1
                }
            ]
        },
        {
            "name" : "GH_solid.001",
            "primitives" : [
                {
                    "attributes" : {
                        "POSITION" : 8,
                        "NORMAL" : 9,
                        "TEXCOORD_0" : 10
                    },
                    "indices" : 11,
                    "material" : 1
                }
            ]
        },
        {
            "name" : "GH_solid.002",
            "primitives" : [
                {
                    "attributes" : {
                        "POSITION" : 12,
                        "NORMAL" : 13,
                        "TEXCOORD_0" : 14
                    },
                    "indices" : 15,
                    "material" : 1
                }
            ]
        }
    ],
    "textures" : [
        {
            "source" : 0
        }
    ],
    "images" : [
        {
            "mimeType" : "image/jpeg",
            "name" : "GH_logo_dif.jpg",
            "uri" : "GH_logo_dif.jpg"
        }
    ],
    "accessors" : [
        {
            "bufferView" : 0,
            "componentType" : 5126,
            "count" : 441,
            "max" : [
                200,
                200,
                0
            ],
            "min" : [
                -200,
                -200,
                0
            ],
            "type" : "VEC3"
        },
        {
            "bufferView" : 1,
            "componentType" : 5126,
            "count" : 441,
            "type" : "VEC3"
        },
        {
            "bufferView" : 2,
            "componentType" : 5126,
            "count" : 441,
            "type" : "VEC2"
        },
        {
            "bufferView" : 3,
            "componentType" : 5123,
            "count" : 2400,
            "type" : "SCALAR"
        },
        {
            "bufferView" : 4,
            "componentType" : 5126,
            "count" : 514,
            "max" : [
                12.422672271728516,
                12.776192665100098,
                12.422286987304688
            ],
            "min" : [
                -12.422607421875,
                -12.871891975402832,
                -12.422988891601562
            ],
            "type" : "VEC3"
        },
        {
            "bufferView" : 5,
            "componentType" : 5126,
            "count" : 514,
            "type" : "VEC3"
        },
        {
            "bufferView" : 6,
            "componentType" : 5126,
            "count" : 514,
            "type" : "VEC2"
        },
        {
            "bufferView" : 7,
            "componentType" : 5123,
            "count" : 1728,
            "type" : "SCALAR"
        },
        {
            "bufferView" : 8,
            "componentType" : 5126,
            "count" : 1653,
            "max" : [
                26.425697326660156,
                12.811989784240723,
                26.430397033691406
            ],
            "min" : [
                -26.429929733276367,
                -12.836094856262207,
                -26.425230026245117
            ],
            "type" : "VEC3"
        },
        {
            "bufferView" : 9,
            "componentType" : 5126,
            "count" : 1653,
            "type" : "VEC3"
        },
        {
            "bufferView" : 10,
            "componentType" : 5126,
            "count" : 1653,
            "type" : "VEC2"
        },
        {
            "bufferView" : 11,
            "componentType" : 5123,
            "count" : 6816,
            "type" : "SCALAR"
        },
        {
            "bufferView" : 12,
            "componentType" : 5126,
            "count" : 1098,
            "max" : [
                52.36036682128906,
                13.080262184143066,
                52.3603515625
            ],
            "min" : [
                -52.36037826538086,
                -13.342940330505371,
                -52.360389709472656
            ],
            "type" : "VEC3"
        },
        {
            "bufferView" : 13,
            "componentType" : 5126,
            "count" : 1098,
            "type" : "VEC3"
        },
        {
            "bufferView" : 14,
            "componentType" : 5126,
            "count" : 1098,
            "type" : "VEC2"
        },
        {
            "bufferView" : 15,
            "componentType" : 5123,
            "count" : 4320,
            "type" : "SCALAR"
        }
    ],
    "bufferViews" : [
        {
            "buffer" : 0,
            "byteLength" : 5292,
            "byteOffset" : 0
        },
        {
            "buffer" : 0,
            "byteLength" : 5292,
            "byteOffset" : 5292
        },
        {
            "buffer" : 0,
            "byteLength" : 3528,
            "byteOffset" : 10584
        },
        {
            "buffer" : 0,
            "byteLength" : 4800,
            "byteOffset" : 14112
        },
        {
            "buffer" : 0,
            "byteLength" : 6168,
            "byteOffset" : 18912
        },
        {
            "buffer" : 0,
            "byteLength" : 6168,
            "byteOffset" : 25080
        },
        {
            "buffer" : 0,
            "byteLength" : 4112,
            "byteOffset" : 31248
        },
        {
            "buffer" : 0,
            "byteLength" : 3456,
            "byteOffset" : 35360
        },
        {
            "buffer" : 0,
            "byteLength" : 19836,
            "byteOffset" : 38816
        },
        {
            "buffer" : 0,
            "byteLength" : 19836,
            "byteOffset" : 58652
        },
        {
            "buffer" : 0,
            "byteLength" : 13224,
            "byteOffset" : 78488
        },
        {
            "buffer" : 0,
            "byteLength" : 13632,
            "byteOffset" : 91712
        },
        {
            "buffer" : 0,
            "byteLength" : 13176,
            "byteOffset" : 105344
        },
        {
            "buffer" : 0,
            "byteLength" : 13176,
            "byteOffset" : 118520
        },
        {
            "buffer" : 0,
            "byteLength" : 8784,
            "byteOffset" : 131696
        },
        {
            "buffer" : 0,
            "byteLength" : 8640,
            "byteOffset" : 140480
        }
    ],
    "buffers" : [
        {
            "byteLength" : 149120,
            "uri" : "gh_logo.bin"
        }
    ]
}
