{
    "asset" : {
        "generator" : "Khronos glTF Blender I/O v0.9.25",
        "version" : "2.0"
    },
    "scene" : 0,
    "scenes" : [
        {
            "name" : "Scene",
            "nodes" : [
                0
            ]
        }
    ],
    "nodes" : [
        {
            "mesh" : 0,
            "name" : "Curve.001"
        }
    ],
    "materials" : [
        {
            "doubleSided" : true,
            "name" : "SVGMat",
            "pbrMetallicRoughness" : {}
        }
    ],
    "meshes" : [
        {
            "name" : "Curve.001",
            "primitives" : [
                {
                    "attributes" : {
                        "POSITION" : 0,
                        "NORMAL" : 1
                    },
                    "indices" : 2,
                    "material" : 0
                }
            ]
        }
    ],
    "accessors" : [
        {
            "bufferView" : 0,
            "componentType" : 5126,
            "count" : 1693,
            "max" : [
                0.08507183194160461,
                0.01749996654689312,
                0.140140563249588
            ],
            "min" : [
                -0.09177832305431366,
                -0.012500032782554626,
                -0.12925398349761963
            ],
            "type" : "VEC3"
        },
        {
            "bufferView" : 1,
            "componentType" : 5126,
            "count" : 1693,
            "type" : "VEC3"
        },
        {
            "bufferView" : 2,
            "componentType" : 5123,
            "count" : 3156,
            "type" : "SCALAR"
        }
    ],
    "bufferViews" : [
        {
            "buffer" : 0,
            "byteLength" : 20316,
            "byteOffset" : 0
        },
        {
            "buffer" : 0,
            "byteLength" : 20316,
            "byteOffset" : 20316
        },
        {
            "buffer" : 0,
            "byteLength" : 6312,
            "byteOffset" : 40632
        }
    ],
    "buffers" : [
        {
            "byteLength" : 46944,
            "uri" : "data:application/octet-stream;base64,"
        }
    ]
}
